<svg xmlns="http://www.w3.org/2000/svg" viewBox="0 0 405 44" width="405" height="44"><polyline points="6,8 22,22 6,36" fill="none" stroke="#111111" stroke-width="7" stroke-linejoin="miter" stroke-linecap="square"/><rect x="28" y="30" width="18" height="7" fill="#C8341B"/><path d="M64.41643835616438 36.0V8.000000000000004H70.0931506849315L73.43013698630136 20.08219178082192L76.88219178082191 8.000000000000004H82.59726027397261V36.0H78.68493150684931V23.495890410958907Q78.68493150684931 21.347945205479455 78.78082191780823 18.83561643835617Q78.87671232876713 16.32328767123288 79.03013698630137 13.868493150684934Q79.18356164383562 11.413698630136988 79.37534246575342 9.419178082191785L75.15616438356165 23.687671232876713H71.66575342465754L67.6 9.76438356164384Q67.94520547945206 12.487671232876714 68.13698630136986 16.016438356164386Q68.32876712328768 19.545205479452058 68.32876712328768 23.495890410958907V36.0ZM87.43013698630136 36.0 94.56438356164382 8.000000000000004H100.01095890410957L107.1835616438356 36.0H102.96438356164383L101.27671232876712 28.9041095890411H93.33698630136985L91.64931506849314 36.0ZM94.10410958904109 25.45205479452055H100.47123287671232L98.55342465753424 17.397260273972606Q98.05479452054794 15.249315068493154 97.72876712328767 13.676712328767126Q97.40273972602739 12.104109589041098 97.2876712328767 11.490410958904114Q97.17260273972602 12.104109589041098 96.86575342465753 13.676712328767126Q96.55890410958904 15.249315068493154 96.02191780821917 17.358904109589044ZM121.3753424657534 36.38356164383562Q117.42465753424656 36.38356164383562 115.10410958904109 34.178082191780824Q112.7835616438356 31.972602739726028 112.7835616438356 28.21369863013699V15.786301369863015Q112.7835616438356 11.989041095890414 115.10410958904109 9.8027397260274Q117.42465753424656 7.616438356164387 121.3753424657534 7.616438356164387Q125.28767123287669 7.616438356164387 127.60821917808218 9.821917808219181Q129.92876712328766 12.027397260273975 129.92876712328766 15.786301369863015H125.786301369863Q125.786301369863 13.600000000000001 124.61643835616437 12.449315068493153Q123.44657534246574 11.298630136986304 121.3753424657534 11.298630136986304Q119.26575342465752 11.298630136986304 118.09589041095889 12.449315068493153Q116.92602739726026 13.600000000000001 116.92602739726026 15.786301369863015V28.21369863013699Q116.92602739726026 30.4 118.09589041095889 31.550684931506847Q119.26575342465752 32.701369863013696 121.3753424657534 32.701369863013696Q123.44657534246574 32.701369863013696 124.61643835616437 31.550684931506847Q125.786301369863 30.4 125.786301369863 28.21369863013699H129.92876712328766Q129.92876712328766 31.972602739726028 127.60821917808218 34.178082191780824Q125.28767123287669 36.38356164383562 121.3753424657534 36.38356164383562ZM136.56438356164384 36.0V8.000000000000004H140.7068493150685V19.736986301369864H144.42739726027395L150.1808219178082 8.000000000000004H154.66849315068492L148.03287671232874 21.424657534246577L155.013698630137 36.0H150.33424657534246L144.35068493150683 23.34246575342466H140.7068493150685V36.0ZM158.772602739726 36.0 165.90684931506848 8.000000000000004H171.35342465753425L178.52602739726026 36.0H174.3068493150685L172.61917808219178 28.9041095890411H164.67945205479452L162.9917808219178 36.0ZM165.44657534246574 25.45205479452055H171.81369863013697L169.89589041095888 17.397260273972606Q169.3972602739726 15.249315068493154 169.07123287671232 13.676712328767126Q168.74520547945204 12.104109589041098 168.63013698630135 11.490410958904114Q168.5150684931507 12.104109589041098 168.20821917808217 13.676712328767126Q167.90136986301368 15.249315068493154 167.36438356164382 17.358904109589044ZM190.33972602739726 36.0V25.682191780821917L182.0164383561644 8.000000000000004H186.3890410958904L191.26027397260273 18.586301369863016Q191.75890410958905 19.62191780821918 192.06575342465754 20.542465753424658Q192.37260273972603 21.46301369863014 192.48767123287672 21.923287671232877Q192.6027397260274 21.46301369863014 192.9095890410959 20.542465753424658Q193.2164383561644 19.62191780821918 193.6767123287671 18.586301369863016L198.5095890410959 8.000000000000004H202.80547945205478L194.48219178082192 25.682191780821917V36.0ZM223.2109589041096 36.38356164383562Q219.06849315068493 36.38356164383562 216.5753424657534 34.1972602739726Q214.08219178082192 32.010958904109586 214.08219178082192 28.21369863013699H218.14794520547946Q218.14794520547946 30.323287671232876 219.52876712328768 31.53150684931507Q220.9095890410959 32.73972602739726 223.2109589041096 32.73972602739726Q225.47397260273974 32.73972602739726 226.7780821917808 31.512328767123286Q228.08219178082192 30.284931506849315 228.08219178082192 28.25205479452055Q228.08219178082192 26.71780821917808 227.23835616438356 25.567123287671233Q226.3945205479452 24.416438356164385 224.82191780821918 23.994520547945207L220.7945205479452 22.92054794520548Q217.95616438356166 22.15342465753425 216.3260273972603 20.12054794520548Q214.69589041095892 18.087671232876716 214.69589041095892 15.249315068493154Q214.69589041095892 12.947945205479456 215.71232876712332 11.241095890410962Q216.7287671232877 9.534246575342468 218.6082191780822 8.575342465753428Q220.48767123287672 7.616438356164387 222.98082191780824 7.616438356164387Q225.47397260273974 7.616438356164387 227.37260273972603 8.575342465753428Q229.27123287671233 9.534246575342468 230.32602739726028 11.241095890410962Q231.38082191780822 12.947945205479456 231.38082191780822 15.210958904109592H227.3150684931507Q227.3150684931507 13.408219178082195 226.1068493150685 12.315068493150688Q224.8986301369863 11.221917808219182 222.98082191780824 11.221917808219182Q221.06301369863016 11.221917808219182 219.89315068493153 12.315068493150688Q218.7232876712329 13.408219178082195 218.7232876712329 15.172602739726031Q218.7232876712329 16.591780821917812 219.50958904109592 17.55068493150685Q220.29589041095892 18.509589041095893 221.71506849315068 18.89315068493151L225.85753424657534 20.005479452054796Q228.77260273972604 20.77260273972603 230.46027397260275 22.997260273972607Q232.14794520547946 25.22191780821918 232.14794520547946 28.25205479452055Q232.14794520547946 30.745205479452054 231.03561643835616 32.56712328767124Q229.92328767123288 34.38904109589041 227.92876712328768 35.38630136986302Q225.93424657534248 36.38356164383562 223.2109589041096 36.38356164383562ZM246.87671232876713 36.38356164383562Q242.96438356164384 36.38356164383562 240.70136986301372 34.13972602739726Q238.43835616438358 31.895890410958906 238.43835616438358 27.83013698630137V16.16986301369863Q238.43835616438358 12.104109589041098 240.70136986301372 9.860273972602743Q242.96438356164384 7.616438356164387 246.87671232876713 7.616438356164387Q250.78904109589044 7.616438356164387 253.0520547945206 9.860273972602743Q255.3150684931507 12.104109589041098 255.3150684931507 16.13150684931507V27.83013698630137Q255.3150684931507 31.895890410958906 253.0520547945206 34.13972602739726Q250.78904109589044 36.38356164383562 246.87671232876713 36.38356164383562ZM246.87671232876713 32.701369863013696Q248.94794520547947 32.701369863013696 250.06027397260277 31.550684931506847Q251.17260273972605 30.4 251.17260273972605 28.21369863013699V15.786301369863015Q251.17260273972605 13.600000000000001 250.07945205479456 12.449315068493153Q248.98630136986304 11.298630136986304 246.87671232876713 11.298630136986304Q244.76712328767124 11.298630136986304 243.67397260273975 12.449315068493153Q242.58082191780824 13.600000000000001 242.58082191780824 15.786301369863015V28.21369863013699Q242.58082191780824 30.4 243.69315068493154 31.550684931506847Q244.8054794520548 32.701369863013696 246.87671232876713 32.701369863013696ZM262.5260273972603 36.0V8.000000000000004H279.47945205479454V11.797260273972604H266.59178082191784V20.158904109589045H278.4438356164384V23.994520547945207H266.668493150685V36.0ZM292.36712328767123 36.0V11.758904109589043H284.88767123287676V8.000000000000004H304.02739726027403V11.758904109589043H296.5095890410959V36.0ZM310.47123287671235 36.0 307.3643835616439 8.000000000000004H310.96986301369867L312.9260273972603 28.0986301369863Q313.041095890411 29.249315068493154 313.1178082191781 30.706849315068496Q313.1945205479452 32.16438356164384 313.2328767123288 33.084931506849315Q313.3479452054795 32.16438356164384 313.4630136986302 30.706849315068496Q313.5780821917809 29.249315068493154 313.7315068493151 28.0986301369863L316.3397260273973 8.000000000000004H320.2520547945206L322.668493150685 28.0986301369863Q322.78356164383564 29.249315068493154 322.9561643835617 30.706849315068496Q323.12876712328773 32.16438356164384 323.2054794520548 33.084931506849315Q323.28219178082196 32.16438356164384 323.3780821917809 30.706849315068496Q323.47397260273976 29.249315068493154 323.5890410958904 28.0986301369863L325.58356164383565 8.000000000000004H329.0739726027398L325.8520547945206 36.0H321.01917808219184L318.6794520547946 15.63287671232877Q318.56438356164387 14.44383561643836 318.4493150684932 13.024657534246579Q318.3342465753425 11.605479452054798 318.2575342465754 10.723287671232878Q318.18082191780826 11.605479452054798 318.08493150684933 13.024657534246579Q317.98904109589046 14.44383561643836 317.8356164383562 15.63287671232877L315.3424657534247 36.0ZM332.1424657534247 36.0 339.2767123287672 8.000000000000004H344.7232876712329L351.89589041095894 36.0H347.67671232876717L345.98904109589046 28.9041095890411H338.0493150684932L336.36164383561646 36.0ZM338.81643835616444 25.45205479452055H345.1835616438357L343.2657534246576 17.397260273972606Q342.76712328767127 15.249315068493154 342.441095890411 13.676712328767126Q342.1150684931507 12.104109589041098 342.00000000000006 11.490410958904114Q341.88493150684934 12.104109589041098 341.5780821917808 13.676712328767126Q341.27123287671236 15.249315068493154 340.7342465753425 17.358904109589044ZM357.53424657534254 36.0V8.000000000000004H366.27945205479455Q368.88767123287676 8.000000000000004 370.8630136986302 9.016438356164388Q372.8383561643836 10.032876712328772 373.9315068493151 11.87397260273973Q375.0246575342466 13.715068493150689 375.0246575342466 16.208219178082196Q375.0246575342466 19.008219178082193 373.60547945205485 21.079452054794523Q372.18630136986303 23.150684931506852 369.80821917808225 23.994520547945207L375.4082191780822 36.0H370.882191780822L365.66575342465757 24.493150684931507H361.6383561643836V36.0ZM361.6383561643836 20.81095890410959H366.27945205479455Q368.3506849315069 20.81095890410959 369.5780821917809 19.583561643835615Q370.80547945205484 18.356164383561644 370.80547945205484 16.28493150684932Q370.80547945205484 14.175342465753427 369.5589041095891 12.928767123287674Q368.31232876712335 11.68219178082192 366.27945205479455 11.68219178082192H361.6383561643836ZM381.6602739726028 36.0V8.000000000000004H398.1150684931507V11.68219178082192H385.72602739726034V19.66027397260274H396.7726027397261V23.227397260273975H385.72602739726034V32.31780821917808H398.1150684931507V36.0Z" fill="#111111"/></svg>